<svg xmlns="http://www.w3.org/2000/svg" viewBox="0 0 600 400" role="img">
  <defs>
    <linearGradient id="bgBihu" x1="0" y1="0" x2="1" y2="1">
      <stop offset="0%" stop-color="#1e2b0e"/>
      <stop offset="100%" stop-color="#0a1004"/>
    </linearGradient>
    <linearGradient id="bihuWood" x1="0" y1="0" x2="1" y2="0">
      <stop offset="0%" stop-color="#a3702c"/>
      <stop offset="100%" stop-color="#543710"/>
    </linearGradient>
  </defs>
  <rect width="600" height="400" rx="16" fill="url(#bgBihu)"/>
  <circle cx="300" cy="200" r="160" fill="#2ed573" opacity="0.1"/>
  <g transform="translate(130, 110)">
    <path d="M 40 35 Q 180 10 320 25 L 320 155 Q 180 170 40 145 Z" fill="url(#bihuWood)" stroke="#ffa502" stroke-width="2.5"/>
    <ellipse cx="40" cy="90" rx="16" ry="55" fill="#f1f2f6" stroke="#8c531b" stroke-width="4"/>
    <ellipse cx="320" cy="90" rx="18" ry="65" fill="#f1f2f6" stroke="#8c531b" stroke-width="4"/>
    <path d="M 40 40 L 320 30 L 40 70 L 320 60 L 40 100 L 320 90 L 40 130 L 320 120" stroke="#fff" stroke-width="2" fill="none"/>
    <rect x="110" y="45" width="140" height="90" rx="4" fill="#ffffff" stroke="#ff4757" stroke-width="2"/>
    <path d="M 120 55 L 140 55 M 120 70 L 140 70 M 120 85 L 140 85" stroke="#ff4757" stroke-width="2"/>
    <path d="M 240 10 Q 290 -30 330 -10 Q 350 0 340 20" stroke="#2f3542" stroke-width="14" stroke-linecap="round" fill="none"/>
    <circle cx="340" cy="20" r="12" fill="#ffa502"/>
  </g>
  <text x="300" y="360" fill="#fff" font-family="sans-serif" font-size="16" font-weight="bold" text-anchor="middle" letter-spacing="1">ASSAMESE BIHU DHOL &amp; PEPA</text>
</svg>