<svg viewBox="0 0 800 500" xmlns="http://www.w3.org/2000/svg">
  <defs>
    <linearGradient id="sky" x1="0" y1="0" x2="0" y2="1">
      <stop offset="0%" stop-color="#0a1930"/>
      <stop offset="100%" stop-color="#0e5c5c"/>
    </linearGradient>
    <linearGradient id="sea" x1="0" y1="0" x2="0" y2="1">
      <stop offset="0%" stop-color="#0e5c5c"/>
      <stop offset="100%" stop-color="#050d1c"/>
    </linearGradient>
  </defs>
  <rect width="800" height="500" fill="url(#sky)"/>
  <circle cx="640" cy="120" r="70" fill="#d4952f" opacity="0.85"/>
  <circle cx="640" cy="120" r="100" fill="#f0c674" opacity="0.12"/>
  <rect y="300" width="800" height="200" fill="url(#sea)"/>
  <path d="M0 300 Q200 280 400 300 T800 300 V500 H0 Z" fill="#0a1930" opacity="0.6"/>
  <!-- Kappad shoreline -->
  <path d="M0 340 Q150 320 320 345 Q480 368 650 340 Q740 325 800 335 V500 H0 Z" fill="#050d1c"/>
  <!-- dhows -->
  <g transform="translate(150,250)">
    <path d="M0 40 L60 40 L45 55 L15 55 Z" fill="#0a1930" stroke="#f0c674" stroke-width="1.5"/>
    <line x1="30" y1="40" x2="30" y2="0" stroke="#f0c674" stroke-width="2"/>
    <path d="M30 2 L30 34 L62 26 Z" fill="#d4952f" opacity="0.9"/>
  </g>
  <g transform="translate(320,270)">
    <path d="M0 34 L50 34 L38 47 L12 47 Z" fill="#0a1930" stroke="#f0c674" stroke-width="1.5"/>
    <line x1="25" y1="34" x2="25" y2="0" stroke="#f0c674" stroke-width="2"/>
    <path d="M25 2 L25 28 L50 22 Z" fill="#f0c674" opacity="0.85"/>
  </g>
  <g transform="translate(470,255)">
    <path d="M0 42 L64 42 L48 58 L16 58 Z" fill="#0a1930" stroke="#f0c674" stroke-width="1.5"/>
    <line x1="32" y1="42" x2="32" y2="2" stroke="#f0c674" stroke-width="2"/>
    <path d="M32 4 L32 36 L66 28 Z" fill="#d4952f" opacity="0.9"/>
  </g>
  <!-- waves -->
  <g stroke="#f0c674" stroke-width="1.5" opacity="0.35" fill="none">
    <path d="M0 400 Q40 390 80 400 T160 400 T240 400 T320 400 T400 400 T480 400 T560 400 T640 400 T720 400 T800 400"/>
    <path d="M0 440 Q40 430 80 440 T160 440 T240 440 T320 440 T400 440 T480 440 T560 440 T640 440 T720 440 T800 440"/>
  </g>
  <text x="40" y="470" font-family="Georgia, serif" font-size="20" fill="#f0c674" opacity="0.6" font-style="italic">Kappad · Coast of the Zamorins</text>
</svg>