<svg viewBox="0 0 500 500" xmlns="http://www.w3.org/2000/svg">
  <defs>
    <linearGradient id="diamondGrad" x1="0" y1="0" x2="1" y2="1">
      <stop offset="0%" stop-color="#f0f4ff"/>
      <stop offset="50%" stop-color="#a8c8f0"/>
      <stop offset="100%" stop-color="#5a8fd4"/>
    </linearGradient>
  </defs>
  <rect width="500" height="500" fill="#0a1930"/>
  <g transform="translate(250,220)">
    <polygon points="0,-90 60,-30 40,60 -40,60 -60,-30" fill="url(#diamondGrad)" stroke="#d4952f" stroke-width="2"/>
    <polygon points="0,-90 60,-30 0,-10 -60,-30" fill="#ffffff" opacity="0.5"/>
    <polygon points="-60,-30 0,-10 -40,60" fill="#7aa8e0" opacity="0.6"/>
    <polygon points="60,-30 0,-10 40,60" fill="#4a78c0" opacity="0.6"/>
  </g>
  <g transform="translate(120,340)" opacity="0.7">
    <polygon points="0,-30 20,-10 14,20 -14,20 -20,-10" fill="url(#diamondGrad)"/>
  </g>
  <g transform="translate(380,350)" opacity="0.7">
    <polygon points="0,-25 17,-8 12,17 -12,17 -17,-8" fill="url(#diamondGrad)"/>
  </g>
  <text x="250" y="450" text-anchor="middle" font-family="Georgia, serif" font-size="20" fill="#f0c674">Diamonds of the Krishna-Godavari Basin</text>
</svg>