<svg viewBox="0 0 800 600" xmlns="http://www.w3.org/2000/svg" role="img" aria-label="Stylised illustration inspired by Sita Bibaha, the first Odia film of 1936">
  <defs>
    <linearGradient id="sbBg" x1="0" y1="0" x2="0" y2="1">
      <stop offset="0%" stop-color="#211810"/>
      <stop offset="100%" stop-color="#140f0a"/>
    </linearGradient>
    <linearGradient id="sbFrame" x1="0" y1="0" x2="0" y2="1">
      <stop offset="0%" stop-color="#c99a5c"/>
      <stop offset="100%" stop-color="#8f6a24"/>
    </linearGradient>
  </defs>
  <rect width="800" height="600" fill="url(#sbBg)"/>

  <!-- vintage film frame border -->
  <rect x="60" y="60" width="680" height="480" fill="none" stroke="url(#sbFrame)" stroke-width="8"/>
  <g fill="#8f6a24">
    <rect x="60" y="80" width="16" height="24"/>
    <rect x="60" y="150" width="16" height="24"/>
    <rect x="60" y="220" width="16" height="24"/>
    <rect x="60" y="290" width="16" height="24"/>
    <rect x="60" y="360" width="16" height="24"/>
    <rect x="60" y="430" width="16" height="24"/>
    <rect x="60" y="500" width="16" height="24"/>
    <rect x="724" y="80" width="16" height="24"/>
    <rect x="724" y="150" width="16" height="24"/>
    <rect x="724" y="220" width="16" height="24"/>
    <rect x="724" y="290" width="16" height="24"/>
    <rect x="724" y="360" width="16" height="24"/>
    <rect x="724" y="430" width="16" height="24"/>
    <rect x="724" y="500" width="16" height="24"/>
  </g>

  <!-- ground -->
  <rect x="120" y="430" width="560" height="90" fill="#3b2c18" opacity="0.7"/>

  <!-- two figures suggesting a wedding scene (Sita-Ram marriage motif) -->
  <g>
    <!-- groom figure -->
    <path d="M340 300 q0 -30 20 -30 q20 0 20 30 v140 h-40 Z" fill="#d9a441"/>
    <circle cx="360" cy="255" r="18" fill="#e8cba0"/>
    <polygon points="345,242 360,220 375,242" fill="#c1442d"/>

    <!-- bride figure -->
    <path d="M420 300 q0 -30 20 -30 q20 0 20 30 v140 h-40 Z" fill="#c1442d"/>
    <circle cx="440" cy="255" r="18" fill="#e8cba0"/>
    <path d="M425 240 q15 -18 30 0" fill="none" stroke="#8f6a24" stroke-width="4"/>
  </g>

  <!-- ceremonial arch above the figures -->
  <path d="M300 210 Q400 140 500 210" fill="none" stroke="#d9a441" stroke-width="4"/>
  <g fill="#f0cc7a">
    <circle cx="320" cy="200" r="5"/>
    <circle cx="360" cy="168" r="5"/>
    <circle cx="400" cy="155" r="5"/>
    <circle cx="440" cy="168" r="5"/>
    <circle cx="480" cy="200" r="5"/>
  </g>

  <!-- oil lamps flanking the scene -->
  <g fill="#8f6a24">
    <rect x="210" y="420" width="10" height="40"/>
    <ellipse cx="215" cy="415" rx="16" ry="8"/>
    <rect x="580" y="420" width="10" height="40"/>
    <ellipse cx="585" cy="415" rx="16" ry="8"/>
  </g>
  <g fill="#f0cc7a" opacity="0.85">
    <ellipse cx="215" cy="405" rx="5" ry="9"/>
    <ellipse cx="585" cy="405" rx="5" ry="9"/>
  </g>

  <!-- title card text -->
  <text x="400" y="560" font-family="Georgia, serif" font-size="20" fill="#f0cc7a" text-anchor="middle" letter-spacing="3">SITA BIBAHA · 1936</text>
</svg>