<svg viewBox="0 0 1024 640" xmlns="http://www.w3.org/2000/svg" role="img" aria-label="Stylised illustration of a vintage cinema hall marquee in Odisha">
  <defs>
    <linearGradient id="chSky" x1="0" y1="0" x2="0" y2="1">
      <stop offset="0%" stop-color="#1a120a"/>
      <stop offset="55%" stop-color="#3a1f14"/>
      <stop offset="100%" stop-color="#c1442d"/>
    </linearGradient>
    <linearGradient id="chWall" x1="0" y1="0" x2="0" y2="1">
      <stop offset="0%" stop-color="#e8cba0"/>
      <stop offset="100%" stop-color="#b89060"/>
    </linearGradient>
    <radialGradient id="chGlow" cx="50%" cy="50%" r="50%">
      <stop offset="0%" stop-color="#f0cc7a"/>
      <stop offset="100%" stop-color="#d9a441" stop-opacity="0"/>
    </radialGradient>
  </defs>

  <rect width="1024" height="640" fill="url(#chSky)"/>
  <circle cx="512" cy="220" r="220" fill="url(#chGlow)" opacity="0.5"/>

  <!-- ground -->
  <rect y="500" width="1024" height="140" fill="#120e08"/>
  <rect y="500" width="1024" height="18" fill="#1f1710"/>

  <!-- cinema hall facade -->
  <rect x="260" y="260" width="504" height="240" fill="url(#chWall)" stroke="#5c3a24" stroke-width="3"/>

  <!-- marquee canopy -->
  <path d="M230 260 L794 260 L764 210 L260 210 Z" fill="#8a2e1c" stroke="#3b1a10" stroke-width="2"/>
  <g fill="#f0cc7a">
    <circle cx="270" cy="235" r="4"/>
    <circle cx="310" cy="235" r="4"/>
    <circle cx="350" cy="235" r="4"/>
    <circle cx="390" cy="235" r="4"/>
    <circle cx="430" cy="235" r="4"/>
    <circle cx="470" cy="235" r="4"/>
    <circle cx="510" cy="235" r="4"/>
    <circle cx="550" cy="235" r="4"/>
    <circle cx="590" cy="235" r="4"/>
    <circle cx="630" cy="235" r="4"/>
    <circle cx="670" cy="235" r="4"/>
    <circle cx="710" cy="235" r="4"/>
    <circle cx="750" cy="235" r="4"/>
  </g>

  <!-- marquee sign board -->
  <rect x="360" y="215" width="304" height="40" rx="4" fill="#120e08" stroke="#d9a441" stroke-width="2"/>
  <text x="512" y="242" font-family="Georgia, serif" font-size="22" fill="#f0cc7a" text-anchor="middle" letter-spacing="4">OLLYWOOD</text>

  <!-- entrance doors -->
  <g fill="#3b1a10">
    <rect x="420" y="380" width="70" height="120" rx="4"/>
    <rect x="534" y="380" width="70" height="120" rx="4"/>
  </g>
  <g stroke="#d9a441" stroke-width="2" opacity="0.6">
    <line x1="455" y1="380" x2="455" y2="500"/>
    <line x1="569" y1="380" x2="569" y2="500"/>
  </g>

  <!-- windows -->
  <g fill="#120e08" opacity="0.85">
    <rect x="300" y="300" width="50" height="60" rx="6"/>
    <rect x="674" y="300" width="50" height="60" rx="6"/>
  </g>

  <!-- film reel decoration above entrance -->
  <circle cx="512" cy="330" r="30" fill="none" stroke="#d9a441" stroke-width="6"/>
  <circle cx="512" cy="330" r="8" fill="#d9a441"/>
  <g fill="#f0cc7a">
    <circle cx="512" cy="308" r="4"/>
    <circle cx="530" cy="320" r="4"/>
    <circle cx="530" cy="342" r="4"/>
    <circle cx="512" cy="354" r="4"/>
    <circle cx="494" cy="342" r="4"/>
    <circle cx="494" cy="320" r="4"/>
  </g>

  <!-- palm trees flanking -->
  <g stroke="#3b1a10" stroke-width="6" stroke-linecap="round">
    <path d="M150 500 q10 -70 4 -130"/>
    <path d="M874 500 q-10 -65 -4 -120"/>
  </g>
  <g fill="#1f6b52">
    <path d="M154 370 q-42 -10 -58 12 q37 6 58 -12 Z"/>
    <path d="M154 370 q42 -10 58 10 q-37 8 -58 -10 Z"/>
    <path d="M154 370 q-10 -38 10 -55 q10 32 -10 55 Z"/>
    <path d="M870 380 q-40 -8 -55 12 q35 6 55 -12 Z"/>
    <path d="M870 380 q40 -8 55 10 q-35 8 -55 -10 Z"/>
  </g>
</svg>